<svg xmlns="http://www.w3.org/2000/svg" viewBox="0 0 192.756 192.756" fill="#fafafa"><g fill-rule="evenodd" clip-rule="evenodd"><path d="M89.84 82.178l8.787-9.491 9.42 9.631-4.92 2.883-3.234-3.305-2.25 2.32v24.113l2.25 2.249 5.414-4.358 2.248 5.835-8.717 8.014-8.998-9.702V82.178z"/><path d="M104.674 86.536l13.074-7.522 11.389 12.302-7.521 7.101 5.061 2.319v7.101c0 2.391.705 3.515 2.461 5.202h-6.748c-1.477-1.055-2.742-3.233-2.742-6.046v-3.022l-3.865-2.531v6.538c0 1.969.42 2.882 2.318 5.062h-11.67c2.812-2.882 2.812-4.851 2.812-7.312V88.926l-4.569-2.39zm11.107.563v7.732l3.865-3.655-3.865-4.077zM64.322 87.379l12.583-7.943L89.067 92.02l-7.381 6.819 5.202 2.601v6.468c0 2.39 1.055 3.444 2.812 5.132h-6.96c-1.546-1.055-3.093-3.304-3.093-5.483v-2.672l-3.937-2.46v5.694c0 1.898.352 2.812 2.39 4.921H66.079c2.882-2.742 2.882-4.71 2.882-7.101V89.7l-4.639-2.321zm11.388.211v7.804l4.358-3.515-4.358-4.289z"/><path d="M48.293 86.466c3.796-2.109 8.295-4.71 12.021-6.89-.633 3.656-.704 5.062.141 8.085a764.209 764.209 0 0 0 2.671 9.279 39.347 39.347 0 0 1 4.148-.422v2.53c-1.125.211-2.25.563-3.304.915.562 2.108 1.195 4.288 1.898 6.748.913 3.375 1.265 4.569 3.444 6.327H58.064c2.039-4.218 1.546-6.046.773-8.928l-.492-1.898c-2.109 1.055-3.796 2.249-5.343 3.515-1.055.844-1.547 1.195-1.688 2.531-.141 2.038 1.195 3.163 3.023 4.78H43.159c2.812-1.969 3.093-3.444 3.515-5.483 1.125-5.483 2.25-10.826 3.375-16.239.564-2.671.423-3.726-1.756-4.85zm8.999 11.951l-2.32-8.437c-.07.281-1.125 6.046-2.179 10.896 1.546-1.053 2.952-1.827 4.499-2.459zM130.543 85.481a743.21 743.21 0 0 0 12.725-7.1c-.703 3.726-.703 5.273.141 8.366.914 3.163 1.688 5.835 2.461 8.506 1.547-.281 3.021-.422 4.639-.563v2.742a24.864 24.864 0 0 0-3.654 1.055c.703 2.46 1.406 5.061 2.248 8.014 1.055 3.516 1.406 4.71 3.656 6.538h-11.74c2.18-4.358 1.617-6.257.844-9.209l-.773-2.812a30.265 30.265 0 0 0-5.904 4.218c-.844.773-1.055 1.055-1.336 2.18-.492 2.531.914 3.796 3.092 5.624h-11.879c3.021-2.039 3.303-3.586 3.795-5.694 1.195-5.694 2.32-11.107 3.586-16.872.56-2.672.419-3.797-1.901-4.993zm9.42 11.459l-2.248-7.803c-.07.281-1.125 5.553-2.18 10.334 1.475-1.054 2.881-1.898 4.428-2.531zM165.412 80.771h18.84v8.295c-1.055-1.054-1.828-1.758-3.445-1.758h-3.021v17.926c0 3.656 1.336 6.116 3.443 7.804h-12.863c2.811-2.461 2.881-4.71 2.881-7.733V87.308h-2.248c-1.969 0-2.602.633-3.586 1.758l-.001-8.295z"/><path d="M147.205 87.45c4.639-3.234 9.209-6.467 13.848-9.701 1.477 1.546 2.883 3.093 4.359 4.64v6.678c-1.266-1.195-2.531-2.39-3.727-3.515-.844.562-1.686 1.195-2.531 1.757v6.679h6.258v6.818c-1.055-1.124-1.898-1.124-2.812-1.124h-3.445v6.959c0 2.601 0 4.358 2.461 6.397h-11.879c2.248-2.18 2.389-3.093 2.389-6.819V89.347c-1.618-.632-3.306-1.264-4.921-1.897zM8.504 73.952h12.302c-1.125 2.883-.492 6.046.07 8.717 1.195 5.554 2.32 11.038 3.515 16.52 1.898-8.014 3.797-16.028 5.625-24.042 1.968 7.874 3.866 15.747 5.834 23.551.984-5.625 2.18-12.936 3.163-18.63.633-3.585.773-4.569-1.054-6.116h12.864c-3.444 3.727-3.655 5.203-4.64 10.756-1.195 6.959-2.39 13.849-3.515 20.808-.562 3.023-.843 4.991 1.055 7.522H31.702c.773-2.602.422-4.64 0-6.749-.422-2.742-.914-5.413-1.406-8.154-.421 1.968-.914 4.007-1.335 5.976-1.054 4.499-1.406 6.046-.211 8.928H16.167c2.742-2.18 2.882-2.952 1.546-8.646-1.687-7.03-3.796-16.169-5.483-23.199-.984-4.289-1.055-4.711-3.726-7.242z"/></g></svg>
